<mxfile host="app.diagrams.net" modified="2022-09-25T17:31:02.151Z" agent="5.0 (Windows NT 10.0; Win64; x64) AppleWebKit/537.36 (KHTML, like Gecko) Chrome/105.0.0.0 Safari/537.36" etag="N-kpjkiYuhd6_YttYpl3" version="20.2.7" type="github">
  <diagram id="kgpKYQtTHZ0yAKxKKP6v" name="Page-1">
    <mxGraphModel dx="183" dy="425" grid="1" gridSize="10" guides="1" tooltips="1" connect="1" arrows="1" fold="1" page="1" pageScale="1" pageWidth="850" pageHeight="1100" math="0" shadow="0">
      <root>
        <mxCell id="0" />
        <mxCell id="1" parent="0" />
        <mxCell id="6DIekwv9izAZSMEO85yw-34" style="edgeStyle=none;shape=connector;rounded=0;orthogonalLoop=1;jettySize=auto;html=1;entryX=0.495;entryY=0.564;entryDx=0;entryDy=0;entryPerimeter=0;dashed=1;labelBackgroundColor=default;fontFamily=Helvetica;fontSize=8;fontColor=default;startArrow=classicThin;startFill=1;endArrow=none;strokeColor=default;" edge="1" parent="1" source="3nuBFxr9cyL0pnOWT2aG-1" target="3nuBFxr9cyL0pnOWT2aG-5">
          <mxGeometry relative="1" as="geometry" />
        </mxCell>
        <mxCell id="6DIekwv9izAZSMEO85yw-35" value="solicitaConfirmacion" style="edgeLabel;html=1;align=center;verticalAlign=middle;resizable=0;points=[];fontSize=8;fontFamily=Helvetica;fontColor=default;" vertex="1" connectable="0" parent="6DIekwv9izAZSMEO85yw-34">
          <mxGeometry x="-0.0795" relative="1" as="geometry">
            <mxPoint as="offset" />
          </mxGeometry>
        </mxCell>
        <mxCell id="6DIekwv9izAZSMEO85yw-42" style="edgeStyle=none;shape=connector;rounded=0;orthogonalLoop=1;jettySize=auto;html=1;entryX=0.517;entryY=0.778;entryDx=0;entryDy=0;entryPerimeter=0;labelBackgroundColor=default;fontFamily=Helvetica;fontSize=8;fontColor=default;startArrow=classicThin;startFill=1;endArrow=none;strokeColor=default;" edge="1" parent="1" source="3nuBFxr9cyL0pnOWT2aG-1" target="3nuBFxr9cyL0pnOWT2aG-5">
          <mxGeometry relative="1" as="geometry" />
        </mxCell>
        <mxCell id="6DIekwv9izAZSMEO85yw-43" value="muestraCierre" style="edgeLabel;html=1;align=center;verticalAlign=middle;resizable=0;points=[];fontSize=8;fontFamily=Helvetica;fontColor=default;" vertex="1" connectable="0" parent="6DIekwv9izAZSMEO85yw-42">
          <mxGeometry x="0.0693" y="2" relative="1" as="geometry">
            <mxPoint as="offset" />
          </mxGeometry>
        </mxCell>
        <mxCell id="3nuBFxr9cyL0pnOWT2aG-1" value="Cliente&#xa;Admin-Natural" style="shape=umlLifeline;perimeter=lifelinePerimeter;container=1;collapsible=0;recursiveResize=0;rounded=0;shadow=0;strokeWidth=1;fontStyle=2" parent="1" vertex="1">
          <mxGeometry x="68" y="80" width="100" height="300" as="geometry" />
        </mxCell>
        <mxCell id="3nuBFxr9cyL0pnOWT2aG-3" value="consumir" style="verticalAlign=bottom;startArrow=oval;endArrow=block;startSize=8;shadow=0;strokeWidth=1;" parent="3nuBFxr9cyL0pnOWT2aG-1" edge="1">
          <mxGeometry relative="1" as="geometry">
            <mxPoint x="-15" y="70" as="sourcePoint" />
            <mxPoint x="45" y="70" as="targetPoint" />
          </mxGeometry>
        </mxCell>
        <mxCell id="6DIekwv9izAZSMEO85yw-36" style="edgeStyle=none;shape=connector;rounded=0;orthogonalLoop=1;jettySize=auto;html=1;entryX=0.485;entryY=0.625;entryDx=0;entryDy=0;entryPerimeter=0;labelBackgroundColor=default;fontFamily=Helvetica;fontSize=8;fontColor=default;startArrow=classicThin;startFill=1;endArrow=none;strokeColor=default;" edge="1" parent="1" source="3nuBFxr9cyL0pnOWT2aG-5" target="3nuBFxr9cyL0pnOWT2aG-1">
          <mxGeometry relative="1" as="geometry" />
        </mxCell>
        <mxCell id="6DIekwv9izAZSMEO85yw-37" value="confirmaCierre()" style="edgeLabel;html=1;align=center;verticalAlign=middle;resizable=0;points=[];fontSize=8;fontFamily=Helvetica;fontColor=default;" vertex="1" connectable="0" parent="6DIekwv9izAZSMEO85yw-36">
          <mxGeometry x="0.0731" y="-1" relative="1" as="geometry">
            <mxPoint as="offset" />
          </mxGeometry>
        </mxCell>
        <mxCell id="6DIekwv9izAZSMEO85yw-44" style="edgeStyle=none;shape=connector;rounded=0;orthogonalLoop=1;jettySize=auto;html=1;entryX=0.52;entryY=0.833;entryDx=0;entryDy=0;entryPerimeter=0;labelBackgroundColor=default;fontFamily=Helvetica;fontSize=8;fontColor=default;startArrow=classicThin;startFill=1;endArrow=none;strokeColor=default;" edge="1" parent="1" source="3nuBFxr9cyL0pnOWT2aG-5" target="3nuBFxr9cyL0pnOWT2aG-1">
          <mxGeometry relative="1" as="geometry" />
        </mxCell>
        <mxCell id="6DIekwv9izAZSMEO85yw-45" value="DeclinaCierre" style="edgeLabel;html=1;align=center;verticalAlign=middle;resizable=0;points=[];fontSize=8;fontFamily=Helvetica;fontColor=default;" vertex="1" connectable="0" parent="6DIekwv9izAZSMEO85yw-44">
          <mxGeometry x="0.116" relative="1" as="geometry">
            <mxPoint as="offset" />
          </mxGeometry>
        </mxCell>
        <mxCell id="3nuBFxr9cyL0pnOWT2aG-5" value="Sistema" style="shape=umlLifeline;perimeter=lifelinePerimeter;container=1;collapsible=0;recursiveResize=0;rounded=0;shadow=0;strokeWidth=1;" parent="1" vertex="1">
          <mxGeometry x="248" y="80" width="100" height="310" as="geometry" />
        </mxCell>
        <mxCell id="3nuBFxr9cyL0pnOWT2aG-6" value="" style="points=[];perimeter=orthogonalPerimeter;rounded=0;shadow=0;strokeWidth=1;" parent="3nuBFxr9cyL0pnOWT2aG-5" vertex="1">
          <mxGeometry x="45" y="80" width="10" height="30" as="geometry" />
        </mxCell>
        <mxCell id="6DIekwv9izAZSMEO85yw-33" value="" style="points=[];perimeter=orthogonalPerimeter;rounded=0;shadow=0;strokeWidth=1;" vertex="1" parent="3nuBFxr9cyL0pnOWT2aG-5">
          <mxGeometry x="45" y="130" width="10" height="30" as="geometry" />
        </mxCell>
        <mxCell id="6DIekwv9izAZSMEO85yw-48" value="" style="points=[];perimeter=orthogonalPerimeter;rounded=0;shadow=0;strokeWidth=1;" vertex="1" parent="3nuBFxr9cyL0pnOWT2aG-5">
          <mxGeometry x="45" y="280" width="10" height="20" as="geometry" />
        </mxCell>
        <mxCell id="6DIekwv9izAZSMEO85yw-8" value="ProcesoMonitor" style="shape=umlLifeline;perimeter=lifelinePerimeter;container=1;collapsible=0;recursiveResize=0;rounded=0;shadow=0;strokeWidth=1;fontStyle=2" vertex="1" parent="1">
          <mxGeometry x="400" y="80" width="100" height="300" as="geometry" />
        </mxCell>
        <mxCell id="6DIekwv9izAZSMEO85yw-9" value="" style="points=[];perimeter=orthogonalPerimeter;rounded=0;shadow=0;strokeWidth=1;" vertex="1" parent="6DIekwv9izAZSMEO85yw-8">
          <mxGeometry x="45" y="80" width="10" height="160" as="geometry" />
        </mxCell>
        <mxCell id="6DIekwv9izAZSMEO85yw-10" value="BaseDatos" style="shape=umlLifeline;perimeter=lifelinePerimeter;container=1;collapsible=0;recursiveResize=0;rounded=0;shadow=0;strokeWidth=1;fontStyle=2" vertex="1" parent="1">
          <mxGeometry x="670" y="80" width="100" height="300" as="geometry" />
        </mxCell>
        <mxCell id="6DIekwv9izAZSMEO85yw-11" value="" style="points=[];perimeter=orthogonalPerimeter;rounded=0;shadow=0;strokeWidth=1;" vertex="1" parent="6DIekwv9izAZSMEO85yw-10">
          <mxGeometry x="45" y="80" width="10" height="160" as="geometry" />
        </mxCell>
        <mxCell id="6DIekwv9izAZSMEO85yw-14" value="" style="endArrow=classic;html=1;rounded=0;" edge="1" parent="1" source="3nuBFxr9cyL0pnOWT2aG-1" target="3nuBFxr9cyL0pnOWT2aG-5">
          <mxGeometry width="50" height="50" relative="1" as="geometry">
            <mxPoint x="210" y="240" as="sourcePoint" />
            <mxPoint x="260" y="190" as="targetPoint" />
            <Array as="points">
              <mxPoint x="200" y="170" />
            </Array>
          </mxGeometry>
        </mxCell>
        <mxCell id="6DIekwv9izAZSMEO85yw-21" value="&amp;lt;&amp;lt;Create&amp;gt;&amp;gt;&lt;br&gt;EjecutarApp()" style="edgeLabel;html=1;align=center;verticalAlign=middle;resizable=0;points=[];fontSize=8;" vertex="1" connectable="0" parent="1">
          <mxGeometry x="209.99571428571434" y="170" as="geometry" />
        </mxCell>
        <mxCell id="6DIekwv9izAZSMEO85yw-25" value="" style="endArrow=none;dashed=1;html=1;rounded=0;labelBackgroundColor=default;fontFamily=Helvetica;fontSize=8;fontColor=default;strokeColor=default;shape=connector;entryX=0.5;entryY=0.399;entryDx=0;entryDy=0;entryPerimeter=0;exitX=0.52;exitY=0.4;exitDx=0;exitDy=0;exitPerimeter=0;startArrow=classicThin;startFill=1;" edge="1" parent="1" source="3nuBFxr9cyL0pnOWT2aG-1" target="3nuBFxr9cyL0pnOWT2aG-5">
          <mxGeometry width="50" height="50" relative="1" as="geometry">
            <mxPoint x="180" y="220" as="sourcePoint" />
            <mxPoint x="230" y="170" as="targetPoint" />
          </mxGeometry>
        </mxCell>
        <mxCell id="6DIekwv9izAZSMEO85yw-26" value="menuInteraccion" style="edgeLabel;html=1;align=center;verticalAlign=middle;resizable=0;points=[];fontSize=8;fontFamily=Helvetica;fontColor=default;" vertex="1" connectable="0" parent="6DIekwv9izAZSMEO85yw-25">
          <mxGeometry x="-0.0665" relative="1" as="geometry">
            <mxPoint as="offset" />
          </mxGeometry>
        </mxCell>
        <mxCell id="6DIekwv9izAZSMEO85yw-29" style="edgeStyle=none;shape=connector;rounded=0;orthogonalLoop=1;jettySize=auto;html=1;labelBackgroundColor=default;fontFamily=Helvetica;fontSize=8;fontColor=default;startArrow=classicThin;startFill=1;endArrow=none;strokeColor=default;" edge="1" parent="1" source="3nuBFxr9cyL0pnOWT2aG-5" target="3nuBFxr9cyL0pnOWT2aG-1">
          <mxGeometry relative="1" as="geometry">
            <Array as="points">
              <mxPoint x="250" y="220" />
            </Array>
          </mxGeometry>
        </mxCell>
        <mxCell id="6DIekwv9izAZSMEO85yw-30" value="enviaInstrucciones()" style="edgeLabel;html=1;align=center;verticalAlign=middle;resizable=0;points=[];fontSize=8;fontFamily=Helvetica;fontColor=default;" vertex="1" connectable="0" parent="6DIekwv9izAZSMEO85yw-29">
          <mxGeometry x="0.0696" y="-1" relative="1" as="geometry">
            <mxPoint as="offset" />
          </mxGeometry>
        </mxCell>
        <mxCell id="6DIekwv9izAZSMEO85yw-40" style="edgeStyle=none;shape=connector;rounded=0;orthogonalLoop=1;jettySize=auto;html=1;dashed=1;labelBackgroundColor=default;fontFamily=Helvetica;fontSize=8;fontColor=default;startArrow=classicThin;startFill=1;endArrow=none;strokeColor=default;" edge="1" parent="1" source="3nuBFxr9cyL0pnOWT2aG-5" target="3nuBFxr9cyL0pnOWT2aG-5">
          <mxGeometry relative="1" as="geometry">
            <Array as="points">
              <mxPoint x="320" y="300" />
              <mxPoint x="320" y="290" />
              <mxPoint x="320" y="280" />
            </Array>
          </mxGeometry>
        </mxCell>
        <mxCell id="6DIekwv9izAZSMEO85yw-41" value="liberaRecursos" style="edgeLabel;html=1;align=center;verticalAlign=middle;resizable=0;points=[];fontSize=8;fontFamily=Helvetica;fontColor=default;" vertex="1" connectable="0" parent="6DIekwv9izAZSMEO85yw-40">
          <mxGeometry x="0.2968" relative="1" as="geometry">
            <mxPoint x="-17" y="9" as="offset" />
          </mxGeometry>
        </mxCell>
        <mxCell id="6DIekwv9izAZSMEO85yw-46" style="edgeStyle=none;shape=connector;rounded=0;orthogonalLoop=1;jettySize=auto;html=1;dashed=1;labelBackgroundColor=default;fontFamily=Helvetica;fontSize=8;fontColor=default;startArrow=classicThin;startFill=1;endArrow=none;strokeColor=default;entryX=0.514;entryY=0.868;entryDx=0;entryDy=0;entryPerimeter=0;exitX=0.513;exitY=0.935;exitDx=0;exitDy=0;exitPerimeter=0;" edge="1" parent="1" source="3nuBFxr9cyL0pnOWT2aG-5" target="3nuBFxr9cyL0pnOWT2aG-5">
          <mxGeometry relative="1" as="geometry">
            <mxPoint x="303.00076923076927" y="360" as="sourcePoint" />
            <mxPoint x="303.00076923076927" y="340" as="targetPoint" />
            <Array as="points">
              <mxPoint x="320" y="370" />
              <mxPoint x="320" y="349" />
            </Array>
          </mxGeometry>
        </mxCell>
        <mxCell id="6DIekwv9izAZSMEO85yw-47" value="continua" style="edgeLabel;html=1;align=center;verticalAlign=middle;resizable=0;points=[];fontSize=8;fontFamily=Helvetica;fontColor=default;" vertex="1" connectable="0" parent="6DIekwv9izAZSMEO85yw-46">
          <mxGeometry x="0.2968" relative="1" as="geometry">
            <mxPoint x="-22" y="10" as="offset" />
          </mxGeometry>
        </mxCell>
        <mxCell id="6DIekwv9izAZSMEO85yw-49" value="Public/Subs" style="shape=umlLifeline;perimeter=lifelinePerimeter;container=1;collapsible=0;recursiveResize=0;rounded=0;shadow=0;strokeWidth=1;fontStyle=2" vertex="1" parent="1">
          <mxGeometry x="540" y="80" width="100" height="300" as="geometry" />
        </mxCell>
        <mxCell id="6DIekwv9izAZSMEO85yw-50" value="" style="points=[];perimeter=orthogonalPerimeter;rounded=0;shadow=0;strokeWidth=1;" vertex="1" parent="6DIekwv9izAZSMEO85yw-49">
          <mxGeometry x="45" y="80" width="10" height="160" as="geometry" />
        </mxCell>
      </root>
    </mxGraphModel>
  </diagram>
</mxfile>
